<svg width="16" height="16" viewBox="0 0 16 16" fill="none" xmlns="http://www.w3.org/2000/svg">
<path d="M10.6667 15.1666H5.33333C2.9 15.1666 1.5 13.7666 1.5 11.3333V4.66659C1.5 2.23325 2.9 0.833252 5.33333 0.833252H10.6667C13.1 0.833252 14.5 2.23325 14.5 4.66659V11.3333C14.5 13.7666 13.1 15.1666 10.6667 15.1666ZM5.33333 1.83325C3.42667 1.83325 2.5 2.75992 2.5 4.66659V11.3333C2.5 13.2399 3.42667 14.1666 5.33333 14.1666H10.6667C12.5733 14.1666 13.5 13.2399 13.5 11.3333V4.66659C13.5 2.75992 12.5733 1.83325 10.6667 1.83325H5.33333Z" fill="#292D32"/>
<path d="M12.3337 6.16667H11.0003C9.98699 6.16667 9.16699 5.34667 9.16699 4.33333V3C9.16699 2.72667 9.39366 2.5 9.66699 2.5C9.94033 2.5 10.167 2.72667 10.167 3V4.33333C10.167 4.79333 10.5403 5.16667 11.0003 5.16667H12.3337C12.607 5.16667 12.8337 5.39333 12.8337 5.66667C12.8337 5.94 12.607 6.16667 12.3337 6.16667Z" fill="#292D32"/>
<path d="M7.99967 9.16675H5.33301C5.05967 9.16675 4.83301 8.94008 4.83301 8.66675C4.83301 8.39341 5.05967 8.16675 5.33301 8.16675H7.99967C8.27301 8.16675 8.49967 8.39341 8.49967 8.66675C8.49967 8.94008 8.27301 9.16675 7.99967 9.16675Z" fill="#292D32"/>
<path d="M10.6663 11.8333H5.33301C5.05967 11.8333 4.83301 11.6066 4.83301 11.3333C4.83301 11.0599 5.05967 10.8333 5.33301 10.8333H10.6663C10.9397 10.8333 11.1663 11.0599 11.1663 11.3333C11.1663 11.6066 10.9397 11.8333 10.6663 11.8333Z" fill="#292D32"/>
</svg>
