<svg width="12" height="12" viewBox="0 0 12 12" fill="none" xmlns="http://www.w3.org/2000/svg">
<path d="M8 1H4C2.25 1 1.5 2 1.5 3.5V8.5C1.5 10 2.25 11 4 11H8C9.75 11 10.5 10 10.5 8.5V3.5C10.5 2 9.75 1 8 1ZM4 6.125H6C6.205 6.125 6.375 6.295 6.375 6.5C6.375 6.705 6.205 6.875 6 6.875H4C3.795 6.875 3.625 6.705 3.625 6.5C3.625 6.295 3.795 6.125 4 6.125ZM8 8.875H4C3.795 8.875 3.625 8.705 3.625 8.5C3.625 8.295 3.795 8.125 4 8.125H8C8.205 8.125 8.375 8.295 8.375 8.5C8.375 8.705 8.205 8.875 8 8.875ZM9.25 4.625H8.25C7.49 4.625 6.875 4.01 6.875 3.25V2.25C6.875 2.045 7.045 1.875 7.25 1.875C7.455 1.875 7.625 2.045 7.625 2.25V3.25C7.625 3.595 7.905 3.875 8.25 3.875H9.25C9.455 3.875 9.625 4.045 9.625 4.25C9.625 4.455 9.455 4.625 9.25 4.625Z" fill="#211D3A"/>
</svg>
