<svg width="21" height="20" viewBox="0 0 21 20" fill="none" xmlns="http://www.w3.org/2000/svg">
<path d="M16.78 7.53V6.28C16.78 3.58 16.13 0 10.5 0C4.87 0 4.22 3.58 4.22 6.28V7.53C1.42 7.88 0.5 9.3 0.5 12.79V14.65C0.5 18.75 1.75 20 5.85 20H15.15C19.25 20 20.5 18.75 20.5 14.65V12.79C20.5 9.3 19.58 7.88 16.78 7.53ZM10.5 16.74C8.83 16.74 7.48 15.38 7.48 13.72C7.48 12.05 8.84 10.7 10.5 10.7C12.16 10.7 13.52 12.06 13.52 13.72C13.52 15.39 12.17 16.74 10.5 16.74ZM5.85 7.44C5.77 7.44 5.7 7.44 5.62 7.44V6.28C5.62 3.35 6.45 1.4 10.5 1.4C14.55 1.4 15.38 3.35 15.38 6.28V7.45C15.3 7.45 15.23 7.45 15.15 7.45H5.85V7.44Z" fill="white"/>
</svg>
