<svg width="16" height="16" viewBox="0 0 16 16" fill="none" xmlns="http://www.w3.org/2000/svg">
<path d="M4.98633 12.2307L7.05299 13.8307C7.31966 14.0974 7.91966 14.2307 8.31966 14.2307H10.853C11.653 14.2307 12.5197 13.6307 12.7197 12.8307L14.3197 7.96404C14.653 7.03071 14.053 6.23071 13.053 6.23071H10.3863C9.98633 6.23071 9.65299 5.89737 9.71966 5.43071L10.053 3.29737C10.1863 2.69737 9.78633 2.03071 9.18633 1.83071C8.65299 1.63071 7.98633 1.89737 7.71966 2.29737L4.98633 6.36404" stroke="#15D896" stroke-miterlimit="10"/>
<path d="M1.58789 12.2331V5.69977C1.58789 4.76644 1.98789 4.43311 2.92122 4.43311H3.58789C4.52122 4.43311 4.92122 4.76644 4.92122 5.69977V12.2331C4.92122 13.1664 4.52122 13.4998 3.58789 13.4998H2.92122C1.98789 13.4998 1.58789 13.1664 1.58789 12.2331Z" stroke="#15D896" stroke-linecap="round" stroke-linejoin="round"/>
</svg>
