<svg width="16" height="16" viewBox="0 0 16 16" fill="none" xmlns="http://www.w3.org/2000/svg">
<path d="M9.85682 2.4907C9.85535 2.43667 9.83507 2.38484 9.79948 2.34416C9.76388 2.30348 9.7152 2.27649 9.66184 2.26787L6.41216 1.67364C6.37902 1.66899 6.34526 1.67156 6.31321 1.68118C6.28116 1.69079 6.25157 1.70722 6.22646 1.72935C6.19891 1.74944 6.17684 1.77611 6.16224 1.80692C6.14765 1.83774 6.14099 1.87171 6.1429 1.90576V13.5211C6.14437 13.5751 6.16465 13.6269 6.20024 13.6676C6.23584 13.7083 6.28452 13.7353 6.33788 13.7439L9.58756 14.3381C9.6207 14.3428 9.65445 14.3402 9.68651 14.3306C9.71856 14.321 9.74815 14.3045 9.77326 14.2824C9.8008 14.2623 9.82288 14.2357 9.83748 14.2048C9.85207 14.174 9.85872 14.1401 9.85682 14.106V2.4907Z" fill="#292D32"/>
<path d="M14.3137 1.59957C14.2587 1.55457 14.1941 1.52279 14.1249 1.5067C14.0556 1.4906 13.9837 1.49061 13.9144 1.50672L11.4261 2.18451C11.3722 2.19941 11.3252 2.23254 11.293 2.27826C11.2608 2.32398 11.2455 2.37945 11.2497 2.4352V14.0319C11.2504 14.0679 11.2591 14.1032 11.2751 14.1353C11.2912 14.1674 11.3142 14.1955 11.3425 14.2176C11.3727 14.2331 11.4061 14.2412 11.44 14.2412C11.4739 14.2412 11.5074 14.2331 11.5375 14.2176L14.1558 13.577C14.258 13.5513 14.3481 13.491 14.4107 13.4064C14.4734 13.3217 14.5047 13.2179 14.4994 13.1127V1.97096C14.5001 1.89876 14.4837 1.82743 14.4514 1.76285C14.4191 1.69827 14.3719 1.6423 14.3137 1.59957V1.59957Z" fill="#292D32"/>
<path d="M4.75027 1.98024C4.74958 1.94433 4.74089 1.90903 4.72483 1.87691C4.70876 1.84478 4.68574 1.81664 4.65742 1.79455C4.62725 1.77907 4.59384 1.771 4.55993 1.771C4.52602 1.771 4.49261 1.77907 4.46244 1.79455L1.84412 2.4352C1.74197 2.46086 1.65189 2.52116 1.58924 2.60582C1.52659 2.69048 1.49526 2.79426 1.50058 2.89944V14.0412C1.49984 14.1134 1.5163 14.1848 1.54859 14.2493C1.58088 14.3139 1.62808 14.3699 1.68628 14.4126C1.76694 14.4723 1.86448 14.5048 1.96482 14.5055H2.08553L4.57386 13.8462C4.63123 13.8309 4.68095 13.795 4.71349 13.7453C4.74604 13.6956 4.75913 13.6357 4.75027 13.577V1.98024Z" fill="#292D32"/>
</svg>
