<svg width="24" height="24" viewBox="0 0 24 24" fill="none" xmlns="http://www.w3.org/2000/svg">
<path d="M3.49942 15.9935C4.32752 15.9935 4.99883 16.6648 4.99883 17.4929C4.99883 18.321 4.32752 18.9924 3.49942 18.9924C2.67131 18.9924 2 18.321 2 17.4929C2 16.6648 2.67131 15.9935 3.49942 15.9935ZM7.50034 16.4929H21.0035C21.5558 16.4929 22.0035 16.9407 22.0035 17.4929C22.0035 18.0058 21.6174 18.4284 21.1201 18.4862L21.0035 18.4929H7.50034C6.94805 18.4929 6.50034 18.0452 6.50034 17.4929C6.50034 16.9801 6.88638 16.5574 7.38372 16.4997L7.50034 16.4929ZM3.49942 10.9936C4.32752 10.9936 4.99883 11.6649 4.99883 12.493C4.99883 13.3211 4.32752 13.9924 3.49942 13.9924C2.67131 13.9924 2 13.3211 2 12.493C2 11.6649 2.67131 10.9936 3.49942 10.9936ZM7.50034 11.493H21.0035C21.5558 11.493 22.0035 11.9407 22.0035 12.493C22.0035 13.0058 21.6174 13.4285 21.1201 13.4862L21.0035 13.493H7.50034C6.94805 13.493 6.50034 13.0453 6.50034 12.493C6.50034 11.9801 6.88638 11.5575 7.38372 11.4997L7.50034 11.493ZM3.49942 6C4.32752 6 4.99883 6.67131 4.99883 7.49941C4.99883 8.32752 4.32752 8.99883 3.49942 8.99883C2.67131 8.99883 2 8.32752 2 7.49941C2 6.67131 2.67131 6 3.49942 6ZM7.50034 6.49301H21.0035C21.5558 6.49301 22.0035 6.94073 22.0035 7.49301C22.0035 8.00585 21.6174 8.42852 21.1201 8.48628L21.0035 8.49301H7.50034C6.94805 8.49301 6.50034 8.0453 6.50034 7.49301C6.50034 6.98017 6.88638 6.5575 7.38372 6.49974L7.50034 6.49301Z" fill="#474554"/>
</svg>
