<svg width="17" height="16" viewBox="0 0 17 16" fill="none" xmlns="http://www.w3.org/2000/svg">
<g clip-path="url(#clip0_1210_9997)">
<path d="M14.0418 6.66601C14.0418 11.3327 8.02383 15.3327 8.02383 15.3327C8.02383 15.3327 2.00586 11.3327 2.00586 6.66601C2.00586 5.07472 2.63989 3.54859 3.76848 2.42337C4.89707 1.29816 6.42777 0.666016 8.02383 0.666016C9.6199 0.666016 11.1506 1.29816 12.2792 2.42337C13.4078 3.54859 14.0418 5.07472 14.0418 6.66601Z" stroke="#4F4F4F" stroke-width="1.5" stroke-linecap="round" stroke-linejoin="round"/>
<path d="M8.02406 8.66602C9.13194 8.66602 10.03 7.77059 10.03 6.66602C10.03 5.56145 9.13194 4.66602 8.02406 4.66602C6.91618 4.66602 6.01807 5.56145 6.01807 6.66602C6.01807 7.77059 6.91618 8.66602 8.02406 8.66602Z" stroke="#4F4F4F" stroke-width="1.5" stroke-linecap="round" stroke-linejoin="round"/>
</g>
<defs>
<clipPath id="clip0_1210_9997">
<rect width="16.0479" height="16" fill="white"/>
</clipPath>
</defs>
</svg>
