<svg width="16" height="16" viewBox="0 0 16 16" fill="none" xmlns="http://www.w3.org/2000/svg">
<path d="M8 13.1666C5.52 13.1666 3.5 11.1466 3.5 8.66659V5.33325C3.5 2.85325 5.52 0.833252 8 0.833252C10.48 0.833252 12.5 2.85325 12.5 5.33325V8.66659C12.5 11.1466 10.48 13.1666 8 13.1666ZM8 1.83325C6.07333 1.83325 4.5 3.39992 4.5 5.33325V8.66659C4.5 10.5999 6.07333 12.1666 8 12.1666C9.92667 12.1666 11.5 10.5999 11.5 8.66659V5.33325C11.5 3.39992 9.92667 1.83325 8 1.83325Z" fill="#292D32"/>
<path d="M8 15.1666C4.41333 15.1666 1.5 12.2533 1.5 8.66659V7.33325C1.5 7.05992 1.72667 6.83325 2 6.83325C2.27333 6.83325 2.5 7.05992 2.5 7.33325V8.66659C2.5 11.6999 4.96667 14.1666 8 14.1666C11.0333 14.1666 13.5 11.6999 13.5 8.66659V7.33325C13.5 7.05992 13.7267 6.83325 14 6.83325C14.2733 6.83325 14.5 7.05992 14.5 7.33325V8.66659C14.5 12.2533 11.5867 15.1666 8 15.1666Z" fill="#292D32"/>
<path d="M9.74024 5.48659C9.68691 5.48659 9.62691 5.47992 9.56691 5.45992C8.49358 5.07325 7.31358 5.07325 6.24024 5.45992C5.98691 5.55325 5.70024 5.41992 5.60691 5.15992C5.51358 4.89992 5.64691 4.61326 5.90691 4.51992C7.20024 4.05326 8.62024 4.05326 9.91358 4.51992C10.1736 4.61326 10.3069 4.89992 10.2136 5.15992C10.1402 5.36659 9.94691 5.48659 9.74024 5.48659Z" fill="#292D32"/>
<path d="M9.13295 7.48673C9.09295 7.48673 9.04629 7.48007 8.99962 7.46673C8.28629 7.2734 7.53295 7.2734 6.81962 7.46673C6.54629 7.54007 6.27962 7.38007 6.20629 7.1134C6.13295 6.84673 6.29295 6.5734 6.55962 6.50007C7.44629 6.26007 8.37962 6.26007 9.26629 6.50007C9.53295 6.5734 9.69295 6.84673 9.61962 7.1134C9.55295 7.34673 9.35295 7.48673 9.13295 7.48673Z" fill="#292D32"/>
</svg>
