<svg width="16" height="16" viewBox="0 0 16 16" fill="none" xmlns="http://www.w3.org/2000/svg">
<path d="M8.00039 14.62C4.64039 14.62 1.90039 11.8867 1.90039 8.52005V7.26672C1.90039 7.00672 2.11372 6.80005 2.36706 6.80005C2.62039 6.80005 2.83372 7.01338 2.83372 7.26672V8.52005C2.83372 11.3667 5.14706 13.68 7.99372 13.68C10.8404 13.68 13.1537 11.3667 13.1537 8.52005V7.26672C13.1537 7.00672 13.3671 6.80005 13.6204 6.80005C13.8737 6.80005 14.0871 7.01338 14.0871 7.26672V8.52005C14.1004 11.8867 11.3604 14.62 8.00039 14.62Z" fill="#292D32"/>
<path d="M8.00026 1.33325C5.76026 1.33325 3.93359 3.15992 3.93359 5.39992V8.52659C3.93359 10.7666 5.76026 12.5933 8.00026 12.5933C10.2403 12.5933 12.0669 10.7666 12.0669 8.52659V5.39992C12.0669 3.15992 10.2403 1.33325 8.00026 1.33325ZM9.45359 7.05992C9.40693 7.23992 9.24026 7.35992 9.06026 7.35992C9.02693 7.35992 8.98693 7.35325 8.95359 7.34659C8.27359 7.15992 7.55359 7.15992 6.87359 7.34659C6.65359 7.40659 6.43359 7.27992 6.37359 7.05992C6.31359 6.84659 6.44026 6.61992 6.66026 6.55992C7.48026 6.33325 8.34693 6.33325 9.16693 6.55992C9.38693 6.61992 9.5136 6.83992 9.45359 7.05992ZM10.0203 5.21325C9.96026 5.37992 9.80693 5.47992 9.64026 5.47992C9.59359 5.47992 9.54693 5.47325 9.50026 5.45325C8.48026 5.07992 7.36026 5.07992 6.34026 5.45325C6.12693 5.53325 5.89359 5.42659 5.81359 5.21325C5.74026 5.00659 5.84693 4.77325 6.06026 4.69325C7.26026 4.25992 8.58026 4.25992 9.77359 4.69325C9.98693 4.77325 10.0936 5.00659 10.0203 5.21325Z" fill="#292D32"/>
</svg>
