<svg width="17" height="16" viewBox="0 0 17 16" fill="none" xmlns="http://www.w3.org/2000/svg">
<path d="M14.7024 6.66602V3.99935C14.7024 3.25935 14.101 2.66602 13.3659 2.66602H2.67434C1.93929 2.66602 1.34457 3.25935 1.34457 3.99935V6.66602C2.07962 6.66602 2.67434 7.26602 2.67434 7.99935C2.67434 8.73268 2.07962 9.33268 1.33789 9.33268V11.9993C1.33789 12.7327 1.93929 13.3327 2.67434 13.3327H13.3659C14.101 13.3327 14.7024 12.7327 14.7024 11.9993V9.33268C13.9673 9.33268 13.3659 8.73268 13.3659 7.99935C13.3659 7.26602 13.9673 6.66602 14.7024 6.66602ZM13.3659 5.69268C12.5708 6.15268 12.0295 7.01935 12.0295 7.99935C12.0295 8.97935 12.5708 9.84601 13.3659 10.306V11.9993H2.67434V10.306C3.46953 9.84601 4.01079 8.97935 4.01079 7.99935C4.01079 7.01268 3.47621 6.15268 2.68102 5.69268L2.67434 3.99935H13.3659V5.69268ZM7.35192 9.99935H8.68837V11.3327H7.35192V9.99935ZM7.35192 7.33268H8.68837V8.66601H7.35192V7.33268ZM7.35192 4.66602H8.68837V5.99935H7.35192V4.66602Z" fill="#4F4F4F"/>
</svg>
