<svg width="21" height="18" viewBox="0 0 21 18" fill="none" xmlns="http://www.w3.org/2000/svg">
<path d="M20.9589 2.14354C20.1845 2.50249 19.3577 2.74701 18.4871 2.85867C19.3743 2.29487 20.0568 1.40626 20.3797 0.34603C19.5476 0.858154 18.6254 1.23094 17.6436 1.43856C16.8597 0.553647 15.7423 0 14.5016 0C12.1244 0 10.1968 2.03281 10.1968 4.53714C10.1968 4.89701 10.2362 5.24304 10.3079 5.57431C6.72934 5.39622 3.5576 3.58394 1.43494 0.844312C1.06133 1.51053 0.852215 2.28472 0.852215 3.12811C0.852215 4.706 1.61343 6.09289 2.76663 6.90767C2.06054 6.88368 1.39644 6.67883 0.817216 6.33926V6.39555C0.817216 8.5963 2.29853 10.4316 4.26982 10.8496C3.90846 10.9521 3.52698 11.0074 3.13587 11.0074C2.86113 11.0074 2.59777 10.9798 2.3344 10.9281C2.8865 12.7302 4.47369 14.0442 6.36273 14.0811C4.8928 15.2982 3.03 16.0235 1.02371 16.0235C0.682472 16.0235 0.342111 16.0023 0 15.9617C1.9153 17.248 4.17183 18 6.6121 18C14.534 18 18.8607 11.0831 18.8607 5.09448C18.8607 4.90163 18.8607 4.70693 18.8476 4.51315C19.6884 3.87738 20.4225 3.07367 21 2.16199L20.9589 2.14354Z" fill="#211D3A"/>
</svg>
