<svg width="16" height="16" viewBox="0 0 16 16" fill="none" xmlns="http://www.w3.org/2000/svg">
<path d="M10.793 1.33325H5.20634C2.77967 1.33325 1.33301 2.77992 1.33301 5.20659V10.7866C1.33301 13.2199 2.77967 14.6666 5.20634 14.6666H10.7863C13.213 14.6666 14.6597 13.2199 14.6597 10.7933V5.20659C14.6663 2.77992 13.2197 1.33325 10.793 1.33325ZM9.77301 9.15325L8.91967 9.64659L8.06634 10.1399C6.96634 10.7733 6.06634 10.2533 6.06634 8.98659V7.99992V7.01325C6.06634 5.73992 6.96634 5.22659 8.06634 5.85992L8.91967 6.35325L9.77301 6.84659C10.873 7.47992 10.873 8.51992 9.77301 9.15325Z" fill="#292D32"/>
</svg>
