<svg width="16" height="16" viewBox="0 0 16 16" fill="none" xmlns="http://www.w3.org/2000/svg">
<path d="M9.99967 15.1666H5.99967C2.37967 15.1666 0.833008 13.6199 0.833008 9.99992V5.99992C0.833008 2.37992 2.37967 0.833252 5.99967 0.833252H9.99967C13.6197 0.833252 15.1663 2.37992 15.1663 5.99992V9.99992C15.1663 13.6199 13.6197 15.1666 9.99967 15.1666ZM5.99967 1.83325C2.92634 1.83325 1.83301 2.92659 1.83301 5.99992V9.99992C1.83301 13.0733 2.92634 14.1666 5.99967 14.1666H9.99967C13.073 14.1666 14.1663 13.0733 14.1663 9.99992V5.99992C14.1663 2.92659 13.073 1.83325 9.99967 1.83325H5.99967Z" fill="#292D32"/>
<path d="M7.1729 10.9132C6.8929 10.9132 6.6329 10.8465 6.39957 10.7132C5.86624 10.4065 5.55957 9.77987 5.55957 8.98654V7.0132C5.55957 6.22654 5.86624 5.5932 6.39957 5.28654C6.9329 4.97987 7.62624 5.02654 8.3129 5.42654L10.0262 6.4132C10.7062 6.80654 11.0996 7.38654 11.0996 7.99987C11.0996 8.6132 10.7062 9.1932 10.0262 9.58654L8.3129 10.5732C7.92624 10.7999 7.5329 10.9132 7.1729 10.9132ZM7.17957 6.08654C7.0729 6.08654 6.97957 6.10654 6.90624 6.1532C6.6929 6.27987 6.56624 6.5932 6.56624 7.0132V8.98654C6.56624 9.40654 6.68624 9.71987 6.90624 9.84654C7.11957 9.9732 7.4529 9.91987 7.81957 9.70654L9.5329 8.71987C9.89957 8.50654 10.1062 8.24654 10.1062 7.99987C10.1062 7.7532 9.89957 7.48654 9.5329 7.27987L7.81957 6.2932C7.57957 6.1532 7.35957 6.08654 7.17957 6.08654Z" fill="#292D32"/>
</svg>
